<svg width="689" height="629" viewBox="0 0 689 629" fill="none" xmlns="http://www.w3.org/2000/svg">
<path fill-rule="evenodd" clip-rule="evenodd" d="M368.057 -220.357C483.663 -215.77 605.269 -179.894 675.854 -105.2C741.119 -36.1372 697.267 61.9279 715.909 147.739C730.897 216.728 799.008 577.176 740.5 614C670.591 658 879 559 690 626C707.5 620.324 35 641 8.50002 614C-46.4628 558 200.5 483 108.5 369C-24.6581 204 239.558 183.131 199 103.5C36.0001 -121.5 97.4666 -23.4524 123.5 -105.2C152.338 -195.753 125.057 -148.763 199 -220.357C275.607 -294.531 249.178 -225.074 368.057 -220.357Z" fill="#FDC435"/>
</svg>
