<svg width="649" height="654" viewBox="0 0 649 654" fill="none" xmlns="http://www.w3.org/2000/svg">
<path fill-rule="evenodd" clip-rule="evenodd" d="M328.057 -220.357C443.663 -215.77 565.269 -179.894 635.854 -105.2C701.119 -36.1372 657.267 61.9279 675.909 147.739C690.897 216.728 730.192 411.707 717.5 481C703.439 557.768 483 550 294 617C227.5 636.5 83.5 672 8.50002 640.5C-36.5 576.5 135.5 480 43.5 366C-89.6581 201 199.558 187.631 159 108C-3.99992 -117 57.4665 -23.4524 83.5 -105.2C112.338 -195.753 85.0566 -148.762 159 -220.357C235.607 -294.531 209.178 -225.074 328.057 -220.357Z" fill="#FDC435"/>
</svg>
